<?xml version="1.0" encoding="UTF-8" standalone="no"?>
<!DOCTYPE svg PUBLIC "-//W3C//DTD SVG 1.1//EN" "http://www.w3.org/Graphics/SVG/1.1/DTD/svg11.dtd">
<svg width="100%" height="100%" viewBox="0 0 153 419" version="1.1" xmlns="http://www.w3.org/2000/svg" xmlns:xlink="http://www.w3.org/1999/xlink" xml:space="preserve" xmlns:serif="http://www.serif.com/" style="fill-rule:evenodd;clip-rule:evenodd;stroke-linejoin:round;stroke-miterlimit:2;">
    <g transform="matrix(1,0,0,1,-83.6386,-4.99889)">
        <g transform="matrix(0.1,0,0,-0.1,-194.061,540.911)">
            <g transform="matrix(1,0,0,1,410,-50)">
                <path d="M3344,5396C3299,5376 3233,5314 3203,5263C3189,5238 3168,5187 3156,5149L3135,5079L3105,5120C3067,5171 3000,5216 2951,5225C2904,5233 2848,5211 2803,5168C2776,5142 2764,5137 2727,5138C2642,5142 2605,5081 2629,4975C2646,4899 2665,4886 2768,4879C2868,4872 2920,4850 2980,4790C3002,4768 3028,4733 3040,4711L3060,4670L3013,4701C2951,4740 2886,4757 2773,4764C2717,4767 2662,4778 2630,4790C2517,4835 2441,4802 2389,4685C2372,4647 2367,4617 2367,4557C2367,4491 2372,4471 2399,4415C2435,4343 2480,4302 2534,4293C2589,4284 2621,4304 2706,4398C2867,4574 3010,4621 3010,4498C3010,4477 2997,4424 2980,4382C2942,4282 2927,4201 2935,4136C2944,4071 2985,3905 3004,3859C3014,3834 3016,3812 3010,3780C3005,3755 2995,3674 2986,3600C2935,3153 2942,2671 3005,2271C3014,2214 3020,2166 3017,2164C3012,2158 2974,2356 2890,2825C2724,3754 2683,3945 2651,3945C2635,3945 2635,3779 2650,3525C2682,3019 2750,2659 2899,2210C2968,2005 3080,1707 3086,1713C3088,1715 3061,1795 3026,1891C2877,2298 2775,2692 2726,3045C2697,3253 2658,3814 2673,3800C2676,3797 2711,3631 2750,3430C2978,2256 3026,2028 3041,2051C3046,2059 3050,2072 3050,2080C3050,2093 3049,2093 3039,2080C3032,2069 3030,2077 3034,2110C3038,2142 3037,2148 3031,2130C3025,2111 3023,2120 3023,2165C3023,2198 3016,2281 3007,2350C2957,2723 2967,3272 3032,3701L3043,3777L3091,3748C3129,3724 3152,3717 3207,3714L3275,3711L3213,3720C3144,3730 3106,3747 3071,3783L3048,3808L3080,3855C3124,3919 3158,3999 3182,4099C3199,4169 3203,4214 3202,4338C3201,4488 3202,4492 3225,4516C3238,4529 3256,4540 3266,4540C3302,4540 3353,4504 3394,4451C3418,4420 3458,4376 3483,4353C3625,4222 3806,4223 3827,4356C3830,4377 3845,4410 3859,4429C3894,4475 3900,4569 3873,4632C3849,4684 3804,4738 3762,4763C3734,4779 3730,4779 3718,4764C3665,4699 3644,4696 3529,4735C3477,4753 3434,4761 3383,4761C3343,4761 3310,4763 3310,4765C3310,4776 3393,4813 3491,4844C3681,4906 3716,4941 3707,5064C3702,5134 3701,5136 3655,5176C3620,5207 3606,5228 3599,5261C3593,5285 3580,5319 3569,5336C3530,5399 3419,5428 3344,5396ZM3474,5356C3518,5338 3549,5296 3556,5246C3561,5214 3573,5195 3612,5159C3659,5114 3661,5111 3663,5052C3665,4961 3636,4937 3465,4885C3355,4852 3338,4843 3258,4782L3195,4733L3194,4834C3193,4899 3188,4950 3178,4975C3164,5012 3164,5022 3181,5088C3206,5187 3231,5240 3276,5290C3316,5335 3378,5369 3418,5370C3430,5370 3455,5364 3474,5356ZM2978,5185C3024,5165 3055,5137 3090,5082C3118,5039 3118,5039 3113,4902C3106,4743 3115,4631 3135,4624C3142,4621 3157,4627 3168,4638C3179,4649 3214,4670 3246,4685C3329,4725 3414,4725 3532,4686C3631,4654 3671,4656 3719,4695L3748,4720L3788,4675C3843,4613 3859,4547 3835,4484C3826,4459 3808,4432 3795,4424C3776,4411 3773,4403 3777,4371C3781,4339 3778,4330 3759,4316C3694,4271 3565,4321 3472,4428C3382,4532 3352,4559 3310,4571C3256,4587 3211,4573 3183,4532C3163,4501 3161,4488 3162,4332C3163,4192 3159,4152 3142,4085C3119,4001 3052,3857 3035,3858C3016,3859 2978,4032 2973,4141L2968,4246L3009,4348C3060,4475 3063,4532 3023,4580C2998,4610 2993,4612 2944,4608C2858,4601 2765,4535 2632,4388C2579,4328 2540,4323 2486,4371C2393,4452 2385,4642 2470,4731C2512,4776 2553,4782 2618,4754C2640,4744 2704,4735 2781,4730C2913,4721 2959,4708 3018,4664C3068,4625 3090,4583 3091,4520C3093,4467 3093,4466 3099,4505L3106,4545L3114,4496C3119,4469 3120,4411 3118,4366C3114,4313 3115,4295 3121,4315C3138,4373 3142,4458 3131,4509C3121,4557 3109,4586 3047,4720C2999,4823 2899,4888 2773,4897C2713,4902 2691,4908 2675,4925C2647,4952 2634,5040 2652,5078C2664,5102 2672,5106 2727,5110C2779,5114 2794,5120 2822,5146C2883,5204 2914,5211 2978,5185ZM3163,4780L3156,4715L3147,4757C3142,4780 3141,4828 3146,4867L3154,4935L3161,4890C3166,4865 3166,4816 3163,4780Z" style="fill-rule:nonzero;"/>
            </g>
        </g>
        <g transform="matrix(0.1,0,0,-0.1,-194.061,540.911)">
            <g transform="matrix(1,0,0,1,410,-50)">
                <path d="M3467,4203C3465,4198 3467,4157 3473,4110C3492,3947 3458,3737 3345,3315C3223,2859 3171,2481 3166,2015C3164,1867 3164,1792 3166,1850C3184,2438 3241,2837 3375,3323C3439,3557 3478,3722 3493,3825L3507,3915L3515,3805C3531,3581 3505,3328 3429,2955C3273,2198 3260,2119 3253,1825C3248,1596 3259,1456 3296,1291C3320,1184 3323,1211 3300,1330C3257,1551 3252,1778 3285,2055C3307,2236 3334,2383 3411,2735C3542,3330 3569,3573 3540,3885C3530,3989 3505,4154 3494,4193C3488,4211 3474,4216 3467,4203Z" style="fill-rule:nonzero;"/>
            </g>
        </g>
    </g>
</svg>
